<?xml version="1.0" encoding="UTF-8" standalone="no"?>
<svg
   xmlns:dc="http://purl.org/dc/elements/1.1/"
   xmlns:cc="http://creativecommons.org/ns#"
   xmlns:rdf="http://www.w3.org/1999/02/22-rdf-syntax-ns#"
   xmlns:svg="http://www.w3.org/2000/svg"
   xmlns="http://www.w3.org/2000/svg"
   xmlns:sodipodi="http://sodipodi.sourceforge.net/DTD/sodipodi-0.dtd"
   xmlns:inkscape="http://www.inkscape.org/namespaces/inkscape"
   width="26mm"
   height="26mm"
   viewBox="0 0 26 26"
   version="1.1"
   id="svg883"
   inkscape:version="1.0.2 (e86c870879, 2021-01-15, custom)"
   sodipodi:docname="favicon.svg"
   inkscape:export-filename="/home/user/projects/archimedes2/favicon.png"
   inkscape:export-xdpi="15.63077"
   inkscape:export-ydpi="15.63077">
  <defs
     id="defs877" />
  <sodipodi:namedview
     id="base"
     pagecolor="#ffffff"
     bordercolor="#666666"
     borderopacity="1.0"
     inkscape:pageopacity="0.0"
     inkscape:pageshadow="2"
     inkscape:zoom="5.6"
     inkscape:cx="34.471134"
     inkscape:cy="50.56895"
     inkscape:document-units="mm"
     inkscape:current-layer="layer1"
     inkscape:document-rotation="0"
     showgrid="false"
     fit-margin-top="1"
     fit-margin-left="1"
     fit-margin-right="1"
     fit-margin-bottom="1"
     lock-margins="true"
     inkscape:window-width="1916"
     inkscape:window-height="1025"
     inkscape:window-x="0"
     inkscape:window-y="53"
     inkscape:window-maximized="0" />
  <metadata
     id="metadata880">
    <rdf:RDF>
      <cc:Work
         rdf:about="">
        <dc:format>image/svg+xml</dc:format>
        <dc:type
           rdf:resource="http://purl.org/dc/dcmitype/StillImage" />
        <dc:title />
      </cc:Work>
    </rdf:RDF>
  </metadata>
  <g
     inkscape:label="Layer 1"
     inkscape:groupmode="layer"
     id="layer1"
     transform="translate(-90.486785,-77.462789)">
    <path
       style="fill:#b2a624;fill-opacity:1;stroke:none;stroke-width:0.335111px;stroke-linecap:butt;stroke-linejoin:miter;stroke-opacity:1"
       d="m 96.342068,90.102918 4.266392,4.32241 3.5841,1.848871 3.48762,0.42917 1.49063,-0.470222 4.34845,-3.356603 -1.44002,-2.227622 -4.03607,0.706683 0.38509,-3.389381 -4.8914,2.202439 0.50793,-4.517411 -4.538782,2.582897 z"
       id="path978"
       sodipodi:nodetypes="ccccccccccccc"
       inkscape:transform-center-x="2.061013"
       inkscape:transform-center-y="3.665256" />
    <path
       style="fill:#b2a624;fill-opacity:1;stroke:none;stroke-width:0.335111px;stroke-linecap:butt;stroke-linejoin:miter;stroke-opacity:1"
       d="m 94.397022,86.296736 2.573332,-1.046719 4.538696,1.644545 -0.1188,1.328741 -5.047877,1.879643 -0.424963,-0.37165 z"
       id="path899"
       sodipodi:nodetypes="ccccccc"
       inkscape:transform-center-x="9.0387874"
       inkscape:transform-center-y="0.16441373" />
    <g
       aria-label="A
"
       transform="rotate(0.86683253)"
       id="text1202"
       style="font-style:normal;font-weight:normal;font-size:26.9144px;line-height:1.25;font-family:sans-serif;fill:#ffffff;fill-opacity:1;stroke:none;stroke-width:0.672864">
      <path
         d="m 99.191196,99.203593 v 0.696515 h -5.795532 v -0.696515 l 1.997553,-0.354828 6.005803,-16.716366 h 2.49694 l 6.24235,16.716366 2.23411,0.354828 v 0.696515 h -7.4514 v -0.696515 l 2.36552,-0.354828 -1.74786,-5.085876 h -6.938865 l -1.774142,5.085876 z m 2.825484,-15.178775 -3.022611,8.555309 h 6.137221 z"
         style="font-style:normal;font-variant:normal;font-weight:normal;font-stretch:normal;font-family:'Liberation Serif';-inkscape-font-specification:'Liberation Serif';fill:#000000;fill-opacity:1;stroke-width:0.672864"
         id="path1671" />
    </g>
    <path
       style="fill:#d9ca26;fill-opacity:1;stroke:none;stroke-width:0.335111px;stroke-linecap:butt;stroke-linejoin:miter;stroke-opacity:1"
       d="m 94.335896,86.325123 2.66822,-0.941549 4.874514,2.360469 4.81979,4.54979 2.47239,3.939315 5.26031,-3.349867 1.625,-5.224865 -4.74994,0.771772 1.62352,-5.072404 -5.97562,-0.165826 0.15862,-4.141196 -6.71115,1.47264 2.61841,-1.93276 -5.182437,2.701349 z"
       id="path897"
       inkscape:transform-center-x="1.795669"
       inkscape:transform-center-y="-0.10015949" />
    <path
       style="fill:#d9ca26;fill-opacity:1;stroke:none;stroke-width:0.335111px;stroke-linecap:butt;stroke-linejoin:miter;stroke-opacity:1"
       d="m 102.99455,78.605786 0.13369,0.183643 -2.66837,1.867236 -0.18145,-0.170859 z"
       id="path968"
       inkscape:transform-center-x="5.2883485"
       inkscape:transform-center-y="-7.880829" />
    <path
       style="fill:#e7de78;fill-opacity:1;stroke:none;stroke-width:0.335111px;stroke-linecap:butt;stroke-linejoin:miter;stroke-opacity:1"
       d="m 94.980818,85.451229 1.795563,-0.801547 0.621209,0.04955 c 0,0 4.59719,2.04001 4.70495,2.057991 0.10777,0.01793 0.55277,0.669226 0.55277,0.669226 l 4.62318,4.415696 2.69739,3.919136 2.75573,-1.625605 -3.63532,-5.398087 -4.09511,-4.235834 -6.827559,-2.422832 -1.234081,-0.05709 -2.240686,3.538065 z"
       id="path1168"
       sodipodi:nodetypes="cccscccccccccc"
       inkscape:transform-center-x="3.276445"
       inkscape:transform-center-y="1.3795025" />
    <path
       style="fill:#78e7cd;fill-opacity:1;stroke:none;stroke-width:0.335111px;stroke-linecap:butt;stroke-linejoin:miter;stroke-opacity:1"
       d="m 103.17007,80.546042 2.40263,-0.0679 0.33252,2.011807 -2.14985,0.329824 -0.92056,-1.093648 z"
       id="path1170"
       inkscape:transform-center-x="2.6216645"
       inkscape:transform-center-y="-5.8630971" />
    <path
       style="fill:#e77878;fill-opacity:1;stroke:none;stroke-width:0.335111px;stroke-linecap:butt;stroke-linejoin:miter;stroke-opacity:1"
       d="m 108.91603,83.991526 2.37937,-0.03231 0.26028,1.421296 -0.94216,1.443274 -1.31859,-0.102187 -0.97476,-0.906972 z"
       id="path1192"
       inkscape:transform-center-x="-2.9462455"
       inkscape:transform-center-y="-2.1205536" />
    <path
       style="fill:#7880e7;fill-opacity:1;stroke:none;stroke-width:0.335111px;stroke-linecap:butt;stroke-linejoin:miter;stroke-opacity:1"
       d="m 113.55046,88.702783 -1.26495,1.019445 0.53188,1.274645 1.14761,0.746512 0.53514,0.07721 0.57779,-1.377192 0.0542,-1.024309 -0.41086,-0.691336 z"
       id="path1194"
       inkscape:transform-center-x="-6.7171405"
       inkscape:transform-center-y="2.7496344" />
    <path
       style="fill:#78e78c;fill-opacity:1;stroke:none;stroke-width:0.335111px;stroke-linecap:butt;stroke-linejoin:miter;stroke-opacity:1"
       d="m 100.10715,80.275819 0.44967,-0.06953 0.8845,-0.519194 0.57858,-0.461987 -0.17938,-0.22888 -0.41688,-0.168906 -0.64741,0.183351 -0.71368,0.544926 -0.07576,0.339226 z"
       id="path1196"
       sodipodi:nodetypes="cccccccccc"
       inkscape:transform-center-x="5.9883275"
       inkscape:transform-center-y="-7.9604836" />
  </g>
</svg>
